Normalized EMG Linear Envelopes
nRows=107
nColumns=4

endheader
time	 med_gas_r	  soleus_r	 tib_ant_r	
3.14919	  0.010601	  0.012015	  0.006523	
3.22077	  0.011454	  0.011840	  0.005612	
3.29234	  0.011700	  0.011653	  0.005041	
3.36391	  0.011228	  0.011412	  0.004968	
3.43548	  0.010580	  0.011209	  0.005379	
3.50706	  0.010206	  0.011191	  0.006112	
3.57863	  0.009962	  0.011489	  0.006738	
3.6502	  0.009753	  0.011927	  0.006311	
3.72177	  0.009803	  0.012291	  0.005131	
3.79335	  0.010002	  0.012311	  0.004483	
3.86492	  0.010266	  0.012123	  0.004780	
3.93649	  0.010491	  0.011926	  0.005826	
4.00806	  0.010464	  0.011877	  0.006839	
4.07964	  0.010479	  0.012154	  0.006470	
4.15121	  0.010639	  0.012821	  0.005411	
4.22278	  0.011186	  0.013599	  0.004677	
4.29435	  0.011903	  0.014095	  0.004430	
4.36593	  0.012443	  0.014229	  0.004538	
4.4375	  0.012739	  0.013949	  0.004748	
4.50907	  0.012708	  0.013883	  0.004949	
4.58065	  0.013079	  0.014757	  0.005340	
4.65222	  0.014083	  0.016286	  0.006125	
4.72379	  0.014692	  0.016692	  0.006921	
4.79536	  0.013954	  0.014766	  0.006861	
4.86694	  0.012583	  0.011678	  0.006123	
4.93851	  0.011298	  0.008271	  0.005763	
5.01008	  0.010266	  0.006546	  0.006249	
5.08165	  0.011051	  0.012594	  0.007477	
5.15323	  0.015722	  0.036681	  0.009449	
5.2248	  0.025598	  0.087025	  0.013368	
5.29637	  0.039877	  0.158869	  0.019010	
5.36794	  0.056478	  0.247497	  0.024574	
5.43952	  0.076605	  0.345518	  0.029388	
5.51109	  0.104481	  0.425422	  0.033653	
5.58266	  0.139117	  0.458364	  0.037627	
5.65423	  0.169178	  0.442038	  0.041122	
5.72581	  0.192650	  0.417567	  0.044083	
5.79738	  0.216389	  0.416442	  0.045504	
5.86895	  0.232789	  0.443409	  0.045900	
5.94052	  0.240472	  0.482943	  0.047890	
6.0121	  0.258641	  0.531577	  0.051593	
6.08367	  0.280997	  0.563073	  0.054565	
6.15524	  0.313960	  0.580360	  0.055577	
6.22681	  0.348939	  0.601264	  0.055998	
6.29839	  0.357847	  0.632160	  0.054999	
6.36996	  0.348759	  0.654726	  0.053988	
6.44153	  0.340913	  0.684852	  0.057474	
6.5131	  0.321961	  0.722151	  0.062651	
6.58468	  0.299809	  0.744017	  0.065061	
6.65625	  0.295710	  0.746411	  0.064109	
6.72782	  0.305780	  0.721656	  0.062865	
6.7994	  0.318272	  0.706259	  0.062950	
6.87097	  0.326104	  0.714172	  0.064811	
6.94254	  0.328940	  0.736782	  0.065701	
7.01411	  0.325787	  0.759435	  0.063004	
7.08569	  0.316288	  0.787582	  0.058894	
7.15726	  0.297571	  0.780428	  0.056245	
7.22883	  0.292086	  0.763108	  0.057610	
7.3004	  0.303610	  0.774410	  0.061931	
7.37198	  0.321886	  0.805293	  0.065351	
7.44355	  0.342350	  0.814004	  0.064872	
7.51512	  0.361739	  0.795674	  0.064113	
7.58669	  0.378965	  0.779536	  0.067793	
7.65827	  0.394189	  0.761393	  0.073913	
7.72984	  0.386686	  0.751331	  0.078590	
7.80141	  0.364736	  0.757760	  0.079963	
7.87298	  0.340079	  0.755574	  0.076476	
7.94456	  0.325466	  0.765688	  0.070588	
8.01613	  0.329538	  0.789753	  0.065871	
8.0877	  0.349932	  0.821113	  0.064641	
8.15927	  0.377363	  0.870252	  0.066906	
8.23085	  0.407235	  0.918968	  0.069016	
8.30242	  0.424525	  0.940336	  0.068033	
8.37399	  0.420150	  0.934706	  0.066501	
8.44556	  0.417859	  0.891055	  0.066573	
8.51714	  0.428180	  0.848430	  0.066857	
8.58871	  0.428148	  0.801393	  0.065901	
8.66028	  0.416881	  0.767924	  0.065492	
8.73185	  0.411912	  0.770468	  0.067009	
8.80343	  0.425795	  0.793617	  0.069943	
8.875	  0.439137	  0.792033	  0.070531	
8.94657	  0.432180	  0.762357	  0.067831	
9.01815	  0.420401	  0.739946	  0.064278	
9.08972	  0.409041	  0.746618	  0.062398	
9.16129	  0.400774	  0.776880	  0.063542	
9.23286	  0.396801	  0.787888	  0.064435	
9.30444	  0.397563	  0.772850	  0.062920	
9.37601	  0.413583	  0.771063	  0.062006	
9.44758	  0.429890	  0.814942	  0.063157	
9.51915	  0.431992	  0.855860	  0.065207	
9.59073	  0.412004	  0.818002	  0.065566	
9.6623	  0.384708	  0.745263	  0.065684	
9.73387	  0.371192	  0.665647	  0.064907	
9.80544	  0.360118	  0.602969	  0.063804	
9.87702	  0.331044	  0.561071	  0.062580	
9.94859	  0.306041	  0.529358	  0.060662	
10.0202	  0.291478	  0.497611	  0.056581	
10.0917	  0.282362	  0.484338	  0.051987	
10.1633	  0.286761	  0.492871	  0.048809	
10.2349	  0.295185	  0.515933	  0.048945	
10.3065	  0.298394	  0.535368	  0.052675	
10.378	  0.292457	  0.531864	  0.056641	
10.4496	  0.280293	  0.505871	  0.056728	
10.5212	  0.266311	  0.462686	  0.052130	
10.5927	  0.245210	  0.421306	  0.047027	
10.6643	  0.234095	  0.386987	  0.042809	
10.7359	  0.227262	  0.347755	  0.039548	
